# xmcd CD database file
#
# Track frame offsets:
#	150
#	12620
#	21677
#	37760
#	50330
#	61612
#	73792
#	93122
#	103170
#	116772
#	131127
#
# Disc length: 1941 seconds
#
# Revision: 0
# Processed by: cddbd v1.5.2PL0 Copyright (c) Steve Scherf et al.
# Submitted via: CDex 1.70beta2
#
DISCID=9607930b
DTITLE=Colleen Raye - Sings Heart Songs
DYEAR=2000
DGENRE=Country
TTITLE0=Poor Man's Roses
TTITLE1=Walkin' After Midnight
TTITLE2=Where Or when
TTITLE3=I Fall To Pieces
TTITLE4=Drivin' Me Crazy
TTITLE5=Sweet Dreams
TTITLE6=Crazy
TTITLE7=Heartaches
TTITLE8=She's Got You
TTITLE9=Independence Day
TTITLE10=Heart Songs
EXTD=YEAR: 2000
EXTT0=
EXTT1=
EXTT2=
EXTT3=
EXTT4=
EXTT5=
EXTT6=
EXTT7=
EXTT8=
EXTT9=
EXTT10=
PLAYORDER=
